<svg version="1.2" xmlns="http://www.w3.org/2000/svg" viewBox="0 0 861 307" width="861" height="307">
	<title>logo-3-2-svg</title>
	<style>
		.s0 { fill: #000000 } 
	</style>
	<g id="Layer">
		<path id="Layer" fill-rule="evenodd" class="s0" d="m499 0.1c2-0.3 8.2 2.3 9 3.9 1.6 2.9 1.2 8.2-0.9 11.6-1.5 2.5-6.5 7-9.9 9-1.5 0.9 18.8 38.4 20.8 38.4 1.6 0 5.3-10.8 5.8-16.5 0.5-7.2-0.3-8.3-7.5-9.5-3.6-0.6-1.3-0.8 9.2-0.8 13.2 0 13.9 0.3 5.4 2.2-2.9 0.6-4.4 3.5-5.4 10.5-0.3 2.5-1.7 7.4-3.2 11-3 7.5-2.7 8.6 3.6 11.8 4.8 2.4 7 2 10.3-2.1 1.4-1.6 1.8-1.7 1.8-0.5 0 0.8-1 2.6-2.1 3.8-4.9 5.2-14.5 6.6-21.4 3.1l-3.9-2-5.8 2c-13.8 4.7-28.1 0.9-33.7-9-6.1-10.9-2-24.8 9.9-33.5 4.6-3.4 4.8-3.7 3.9-6.8-3-10.5 2.2-23.2 10.5-25.6 1.7-0.5 3.3-1 3.6-1zm-4.1 17.2c0.4 2.6 1 4.9 1.2 5.2 0.3 0.2 2.2-0.9 4.2-2.6 6.7-5.5 8.7-12.4 4.5-15.3-6.5-4.6-11.6 2-9.9 12.7zm-9 15.7c-1 0-3.5 3.3-5.4 6.9-3.3 6.5-1.6 19 3.6 26.1 4.6 6.1 15.6 9.6 22.5 7l2.7-1.1-2.1-2.2c-3-3.2-14.4-22.5-17.8-30.1-1.6-3.6-3.2-6.6-3.5-6.6z"/>
		<path id="Layer" class="s0" d="m26.5 2.4c-6.1 1.9-9.6 4-13.8 8.3-8.6 8.5-12.2 18.7-11.4 32.1 0.9 14.6 8.6 26.4 21 32.3 7.4 3.5 14.5 3.8 26.2 1.2 7-1.5 7.6-1.5 9.3 0 1 1 2.2 1.7 2.5 1.7 0.4 0 0.7-5.6 0.7-12.5 0-7.7-0.4-12.5-1-12.5-0.5 0-1 1.4-1 3 0 10.7-10.4 20.2-22.1 20.2-14.3 0-19.6-6.2-22-25.2-2.7-22.2 2.2-42 11.4-46.3 4.2-2 12.6-2.2 17-0.4 6.9 2.9 13.7 11.2 13.7 16.7 0 1.1 0.5 2 1 2 0.6 0 1-4.3 1-11 0-6.1-0.2-11-0.3-11-0.2 0-1.7 0.7-3.3 1.5-2.6 1.2-3.7 1.2-8.9 0-7.3-1.7-14.7-1.8-20-0.1z"/>
		<path id="Layer" fill-rule="evenodd" class="s0" d="m100.1 1.3c13.7 0.6 23.7 7.7 30.2 21.5 3 6.2 3.2 7.5 3.1 16.7 0 12.6-2.4 19.1-9.7 27.2-7.4 8-14.6 11.3-25.2 11.3-6.7 0-9-0.5-14-2.8-7.7-3.7-15.5-12.1-18.6-20-3.3-8.4-3.3-22.3 0-31 3.8-10.1 12.5-18.6 22.4-21.8 2.5-0.8 7.2-1.3 11.8-1.1zm-11.6 3.4c-7.7 4.2-10.6 12.2-11.3 31.2-1 29.8 4.6 40.3 21.3 40.3 16.7 0 22.2-10.4 21.3-40.2-0.7-19.8-3.4-27.1-11.6-31.4-4.1-2.1-15.7-2.1-19.7 0.1z"/>
		<path id="Layer" fill-rule="evenodd" class="s0" d="m648.1 1.3c9.9 0.5 16.9 3.7 23.8 11.2 7.3 8.1 9.5 14.5 9.6 27.5 0 9.9-0.2 10.9-3.3 17.2-3.9 7.9-9.9 14.3-16.8 17.8-4.3 2.2-6.2 2.5-14.9 2.5-9.2 0-10.4-0.2-15.3-2.9-14-7.8-22.2-25.4-19.4-41.6 2.7-15.1 11.7-26.4 24.5-30.6 2.5-0.8 7.2-1.3 11.8-1.1zm-11.7 3.6c-8.4 5.1-10.8 12.8-10.9 34.6 0 18.4 1.2 25 5.8 30.2 4.3 4.9 8 6.4 15.1 6.5 16.3 0.1 22-9.2 22-35.7 0-20.9-3.7-32-11.7-35.8-5-2.4-16.2-2.3-20.3 0.2z"/>
		<path id="Layer" class="s0" d="m133.7 3.7l5.2 0.4 0.3 29.2 0.3 29.2 2.7 4.6c1.9 3.2 4.2 5.4 8 7.4 4.7 2.6 6.5 3 15.5 3.3 9.2 0.4 10.7 0.2 15.6-2.1 6.9-3.1 10.4-8 11.7-16.3 0.6-3.2 1-17 1-30.7v-24.7h7 7v35.5 35.5h-5c-2.7 0-5 0.4-5 1 0 0.6 4.3 1 11 1 6.7 0 11-0.4 11-1 0-0.6-2.2-1-5-1h-5v-34.2-34.2l9.6 13.9c5.2 7.7 16.1 23.8 24.2 35.7 8.1 11.9 15.3 21.7 16 21.8 0.9 0 1.2-8 1.2-37v-37h5 5v11c0 6.7 0.4 11 1 11 0.6 0 1-1.7 1-3.8 0.1-5 3.1-11.4 6.7-14 2.8-2 9.7-4.1 13.6-4.2 1.6 0 1.7 2.3 1.7 35.5v35.5h-5c-2.7 0-5 0.4-5 1 0 0.6 6.2 1 16.5 1 10.3 0 16.5-0.4 16.5-1 0-0.6-2.2-1-5-1h-5v-35.6-35.7l5.2 0.7c10.7 1.4 15.7 5.9 18.2 16.2l1.4 5.9 0.1-11.8 0.1-11.7-42.2 0.2c-23.3 0.1-39.9 0.3-37 0.5l5.2 0.4v25.6c0 14.1-0.2 25.4-0.5 25.1-0.3-0.3-8.3-11.9-17.8-25.9l-17.3-25.4-21-0.1c-11.5 0-18.5 0.1-15.6 0.3l5.3 0.4-0.3 28.7c-0.3 28.5-0.3 28.7-2.8 33.2-6.1 10.8-24.1 13.4-31.9 4.5-1.6-1.9-3.5-5.1-4-7.2-0.7-2.2-1.1-15.3-1.1-31.5v-27.7l5.3-0.4c2.8-0.2-2.4-0.3-11.8-0.3-9.3 0-14.7 0.1-11.8 0.3z"/>
		<path id="Layer" fill-rule="evenodd" class="s0" d="m356 3.2c11.3-0.1 22.1 0.3 24.1 0.8 17.2 4.8 20 23.8 4.8 31.4-4.2 2-4.8 2.7-3.3 3.2 7.7 2.5 12.3 5.6 14.6 9.8 0.7 1.1 1.5 6.9 1.8 12.9 0.5 8.3 1.1 11.2 2.5 12.7 2.2 2.4 5.2 2.6 8.2 0.5 1.3-0.9 2.4-1.1 2.8-0.6 1 1.7-5.2 4.1-10.7 4.1-10.9 0-14.8-5.1-15.7-20.5-0.4-5.5-1.2-11-1.9-12.2-2.1-3.8-7-5.6-16.4-6.1l-8.8-0.4v36.2h6.5c3.7 0 6.5 0.4 6.5 1 0 0.6-6.5 1-17.5 1-11 0-17.5-0.4-17.5-1 0-0.6 2.3-1 5-1h5v-70.9l-5.2-0.4c-2.9-0.2 3.9-0.4 15.2-0.5zm9.1 1.2l-7.1-0.7v33.3h8.4c6.9 0 8.8-0.4 10.9-2.1 3.3-2.5 5.1-8.8 4.4-15.5-0.7-6.6-2.9-11-6.6-12.9-1.6-0.8-6.1-1.8-10-2.1z"/>
		<path id="Layer" class="s0" d="m396.2 3.7l5.7 0.4 10.5 20 10.6 20.1v15.4 15.4h-5c-2.7 0-5 0.4-5 1 0 0.6 6.2 1 16.5 1 10.3 0 16.5-0.4 16.5-1 0-0.6-2.2-1-5-1h-5l0.1-15.8v-15.7l9.7-19.5 9.7-19.5 5-0.6c3.1-0.4 0.4-0.6-7-0.6-8.2 0-10.2 0.2-6.3 0.6l5.7 0.6-8.4 17.4c-4.6 9.5-8.5 17.5-8.7 17.6-0.3 0.3-17.7-32-18.6-34.5-0.2-0.5 2.3-1.1 5.5-1.3 3.2-0.2-2.7-0.3-13.2-0.3-10.4 0-16.4 0.1-13.3 0.3z"/>
		<path id="Layer" class="s0" d="m548 14.5c0 11.9 1.3 15.4 2.3 6.4 1.2-9.7 6.9-15.1 17.6-16.5l5.1-0.7v35.7 35.6h-5c-2.7 0-5 0.4-5 1 0 0.6 6.2 1 16.5 1 10.3 0 16.5-0.4 16.5-1 0-0.6-2.2-1-5-1h-5v-35.5-35.5h2.3c4.5 0 12.3 3 14.9 5.7 3.3 3.4 5.8 9.2 5.8 13.3 0 1.6 0.5 3 1 3 0.6 0 1-4.5 1-11.5v-11.5h-31.5-31.5z"/>
		<path id="Layer" class="s0" d="m675 3.7l5.6 0.4 14.9 36.9c8.2 20.4 15.4 37 16 37 0.6 0 5.1-11.5 10-25.5 5-14 9.3-25.5 9.6-25.5 0.3 0 4.9 11.4 10.1 25.2 5.5 14.4 10.1 25.3 10.8 25.3 0.7 0 6.4-14.5 13.7-35.5 6.9-19.5 13-36.1 13.5-36.8 0.6-0.7 3.4-1.2 6.9-1.2h5.9v35.5 35.5h-5c-2.7 0-5 0.4-5 1 0 0.6 4.3 1 10.9 1 6.3 0 11.2-0.4 11.6-1 0.4-0.6-1.5-1-4.9-1h-5.6v-34.2c0-18.8 0.2-33.9 0.5-33.6 0.3 0.3 11.3 16.2 24.4 35.4 13.1 19.1 24.3 35 24.9 35.2 0.9 0.3 1.2-8.9 1.2-36.7v-37l5.3-0.4c2.8-0.2 0-0.3-6.3-0.3-6.3 0-9.1 0.1-6.2 0.3l5.2 0.4v25.7 25.7l-3.5-5c-1.9-2.8-9.9-14.5-17.7-26l-14.3-21-21-0.1c-11.5 0-18.4 0.1-15.3 0.3l5.7 0.4-7.5 21.7c-4.2 11.9-8.6 24.6-9.8 28.1l-2.2 6.3-10.2-27.5c-5.6-15.1-10.2-27.7-10.2-28 0-0.3 2.6-0.8 5.8-1 3.1-0.2-2.2-0.3-11.8-0.3-9.6 0-15.4 0.1-12.8 0.3l4.7 0.4 3.6 9.2 3.5 9.2-6.3 18.4c-3.5 10.1-6.7 18-7 17.5-0.4-0.7-13.7-33.8-21.4-53.1-0.3-0.8 1.2-1.3 4.9-1.6 2.9-0.2-2.8-0.3-12.7-0.3-9.9 0-15.5 0.1-12.5 0.3z"/>
		<path id="Layer" fill-rule="evenodd" class="s0" d="m328.5 92.4c37.3 17.2 60.6 56.9 60.6 103 0 26.2-6 47.2-19.2 67.6-6.3 9.6-22.8 25.6-32.4 31.2-25.1 14.8-55.9 16.5-81.8 4.5-36.8-17-60.7-57.5-60.7-102.7 0-58.8 38.5-107 88.5-110.9 16.7-1.3 31.7 1.1 45 7.3zm-53.1-3c-25.8 5.9-38.8 28.1-43.4 74.5-1.3 13.5-1.3 53.8 0.1 67.7 4.1 42.3 16.7 63.3 42 70.1 8.6 2.2 27.1 2.3 35.6 0 20.2-5.4 32.5-19.4 38.8-44.4 6.8-27.1 7.3-83.7 0.9-115.1-5.9-29.4-16.9-45.4-35.5-51.4-8.3-2.7-29.5-3.4-38.5-1.4z"/>
		<path id="Layer" class="s0" d="m617.5 85.4c-20.2 4.7-35.6 19.4-43.1 41.1-2.4 6.9-2.8 9.6-2.8 20-0.1 17.7 3.5 28 13.5 38.9 9.4 10.3 17.7 15 42.9 24.6 42 15.8 55 26.2 58.1 46.3 3.9 24.9-20.7 46.9-52.6 47-10.4 0.1-17.7-1.8-27.7-7-17.5-9.2-34.3-32.5-36.6-51-0.4-3.1-1.3-5.8-1.9-6.1-1-0.3-1.3 6.9-1.3 33.7 0 33 0.5 38.2 2.9 31.8 1-2.5 5.5-6.9 8.8-8.6 4.3-2.2 11.8-1.3 22.5 2.8 21.2 8 30.3 9.4 45.5 6.7 15.8-2.7 27.1-8.4 37.8-19 28.2-28.1 28.1-69.7-0.3-90.6-8.7-6.5-19-11.5-38.6-19-34.5-13.2-51.1-25.1-56.2-40.4-2.4-7-1.5-18.4 1.9-25.6 3.5-7.4 11.7-15.4 19.7-19.3 6.2-3 7.1-3.2 18-3.2h11.5l8.8 4.3c15.7 7.7 25.6 20.4 28 36.1 0.7 4.5 1.6 7.1 2.4 7.1 1 0 1.3-5.5 1.3-25.5 0-20.6-0.3-25.5-1.3-25.5-0.8 0-1.9 1.1-2.6 2.4-3.1 5.7-11.4 6-26.9 1.1-13.1-4.1-23.2-5-31.7-3.1z"/>
		<path id="Layer" class="s0" d="m0 91.5c0 1.2 2.5 1.5 14.3 1.7l14.2 0.3v102 102l-14 0.5c-12.3 0.4-14 0.7-14.3 2.2-0.3 1.7 2.3 1.8 43.8 1.8 41.5 0 44.1-0.1 43.8-1.7-0.3-1.6-1.9-1.8-13.1-2.1l-12.7-0.3v-52.4-52.5h43.5 43.5v52.5 52.5h-13c-12.3 0-13 0.1-13 2 0 2 0.7 2 44 2 38.4 0 44-0.2 44-1.5 0-1.3-2.1-1.5-13.2-1.5-7.3 0-13.9-0.4-14.6-0.8-1-0.7-1.2-21.9-1-102.8l0.3-101.9 14.3-0.3c11.7-0.2 14.2-0.5 14.2-1.7 0-1.3-5.9-1.5-44-1.5-38.4 0-44 0.2-44 1.5 0 1.3 2.1 1.5 13 1.5h13v48.5 48.5h-43.5-43.5v-48.5-48.5h13c10.9 0 13-0.2 13-1.5 0-1.3-5.6-1.5-44-1.5-38.1 0-44 0.2-44 1.5z"/>
		<path id="Layer" class="s0" d="m374 91.5c0 1.2 2.5 1.5 14.3 1.7l14.2 0.3 0.5 81.5c0.5 81 0.5 81.5 2.7 88 10.2 29.8 38.7 45.5 79.3 43.6 22-1 36.2-6.1 48.1-17.3 5.3-5.1 7.9-8.4 10.9-14.7 7.4-15.1 7.3-12.6 7.7-101.9l0.4-79.7h14c11.7 0 13.9-0.2 13.9-1.5 0-1.3-4-1.5-30-1.5-26 0-30 0.2-30 1.5 0 1.3 2.2 1.5 14 1.5h14.1l-0.3 81.2-0.3 81.3-2.7 8c-6.8 19.9-20.2 31.6-41.1 35.9-27.7 5.8-50.5-2.9-60.2-22.8-7-14.4-7-14.7-7-103.6v-79.5l14.3-0.3c11.7-0.2 14.2-0.5 14.2-1.7 0-1.3-6.1-1.5-45.5-1.5-39.4 0-45.5 0.2-45.5 1.5z"/>
		<path id="Layer" class="s0" d="m692 91.5c0 1.3 2.2 1.5 14 1.5h14v102.5 102.5h-14c-13.3 0-14 0.1-14 2 0 2 0.7 2 84.5 2h84.5v-31c0-26.9-0.2-31-1.5-31-1.1 0-1.5 1.3-1.5 5.3 0 7.1-2.3 15.7-6.5 24.3-6.3 12.9-18.5 21.8-36 26.5-7.1 1.9-10.9 2.2-34.5 2.3l-26.5 0.1-0.3-51.8-0.2-51.7h10.9c14.3 0 21.9 2.2 28.9 8.5 5.9 5.3 8.8 10.8 10.3 19.4 0.7 4 1.6 6.1 2.5 6.1 1.2 0 1.4-5.9 1.4-36 0-30.7-0.2-36-1.4-36-1 0-1.7 1.6-2.2 4.7-1.3 9.1-4.1 14.9-9.9 20.1-7.4 6.8-12.2 8.4-27.7 8.9l-12.8 0.5v-49.2-49.2l25.8 0.4c23.4 0.4 26.2 0.6 31.7 2.6 17.9 6.6 28.7 21.5 30.4 42.1 0.5 6.1 0.9 7.6 2.4 7.9 1.6 0.3 1.7-1.5 1.7-27.7v-28.1h-77c-67.8 0-77 0.2-77 1.5z"/>
	</g>
</svg>