<svg xmlns="http://www.w3.org/2000/svg" viewBox="0 0 717.6 135.6"><title>Logo</title><desc>Brand Logo for House Beautiful</desc><path style="fill:var(--primary, #000)" class="st0" d="M40.4 68h-25V7.6H0v125.8h15.4V76.6h25v56.8h15.2V7.6H40.4zm50.9-26.5c-15.8 0-26.8 14.5-26.8 46.8 0 33.1 11.9 47.2 26.8 47.2 14.3 0 26.6-13.4 26.6-47.2 0-32.7-11.3-46.8-26.6-46.8zm0 88.2c-7.4 0-10.8-9.4-10.8-41.2 0-32.9 3.7-41.4 10.6-41.4 7.3 0 10.8 9.4 10.8 41.2 0 32.9-3.7 41.4-10.6 41.4zM347.1 68c8.8-4 16.8-13 16.8-28.8 0-21.8-11-31.6-26.6-31.6h-25.9v125.8h25.1c17.9 0 29.8-10.3 29.8-35-.1-17.4-8.3-26.7-19.2-30.4zm-20.3-52.9h6c9.1 0 14.9 4.1 14.9 24.5 0 19.9-6.7 23.9-15.5 23.9h-5.4V15.1zm6.1 110.6h-6.1V71.9h5.2c11 0 17.9 4.9 17.9 26.9 0 22.2-6.6 26.9-17 26.9zm237.8-74.3v-8.1h-14.9V13.4l-14.6 2.9v27H534v8.1h7.2v83h14.6v-83zm15.4-24.2c4 0 7.4-3.5 7.4-7.4 0-4-3.4-7.4-7.4-7.4s-7.4 3.3-7.4 7.4c-.1 3.9 3.4 7.4 7.4 7.4zm7.2 16.1-14.5 2.8v50.5h-.1v37.8h14.5zm48.8-29.9h6.5c0-7.1-5.8-13.4-16.2-13.4-14.5 0-22.3 11.7-22.3 29.9v13.4h-8.5v8.1h8.4v83h14.5v-83h11.2v-8.1H624c-.2-5.3-1.3-12.4-1.3-19.2 0-9.2 2.8-18.2 11-18.2 0 0 7.1 0 8.4 7.5zm60.8-4.9v125.8h14.7V5.7zM198.8 130s-7.3 0-12.3-8.1L182 126c3.9 6.4 10.6 9.4 18.2 9.4 14.3 0 24-8.1 24-19.9 0-18.1-20.1-32.9-28.1-46.8-2-3.6-3.2-7.3-3.2-10.7 0-6.2 3.9-10.7 11-10.7 0 0 8-.4 13 7.7l4.5-4.1c-3.9-6.4-10.6-9.4-18.2-9.4h-.7c-15.6 0-22.9 9.6-22.9 20.9 0 23.1 30.2 37.2 30.2 56 0 8.7-5 11.7-10.8 11.7l-.2-.1zm78.6-47.4c-1.2-28.7-11.3-41.2-24.7-41.2-14.7 0-25 14.5-25 46.8v.4c0 32.7 11.6 46.8 25.7 46.8 0 0 1.5.1 3.2 0 7.6-.2 14.3-3 18.2-9.4l-4.5-4.1c-2.6 3.6-5.6 4.9-10.4 5.3-2.9.2-3.5 0-3.5 0-7.1 0-12.5-6.6-13.7-28.8l-.1-3 34.8-12.8zM252.5 47c6.1 0 9.4 7.7 10 32.8l-19.8 7.3v-4.5c.3-28.2 3.8-35.6 9.8-35.6zm168.4 35.6c-1.2-28.7-11.3-41.2-24.7-41.2-14.7 0-25 14.5-25 46.8v.4c0 32.7 11.6 46.8 25.7 46.8 0 0 1.5.1 3.2 0 7.6-.2 14.3-3 18.2-9.4l-4.5-4.1c-2.6 3.6-5.6 4.9-10.4 5.3-2.9.2-3.5 0-3.5 0-7.1 0-12.5-6.6-13.7-28.8l-.1-3 34.8-12.8zM396 47c6.1 0 9.4 7.7 10 32.8l-19.8 7.3v-4.5C386.6 54.4 390 47 396 47zm-237.4 80.8c1.5 5.4 5.8 6.9 9.7 6.9 3.7 0 7.5-1.7 9-3.2v-6c-3.4 1.9-6 .9-6-3V43.3L156.8 46v76c-2.2 3.8-5.8 6-9.5 6-3.9 0-7.1-2.2-7.1-9.2V43.4l-14.5 2.9v71.4c0 10.3 5.2 17.9 16.6 17.9 5.5 0 12.2-2.4 16.1-7.7l.2-.1zm354.5 0c1.5 5.4 5.8 6.9 9.7 6.9 3.7 0 7.5-1.7 9-3.2v-6c-3.4 1.9-6 .9-6-3V43.3L511.3 46v76c-2.2 3.8-5.8 6-9.5 6-3.9 0-7.1-2.2-7.1-9.2V43.4l-14.5 2.9v71.4c0 10.3 5.2 17.9 16.6 17.9 5.5 0 12.2-2.4 16.1-7.7l.2-.1zm163.8 0c1.5 5.4 5.8 6.9 9.7 6.9 3.7 0 7.5-1.7 9-3.2v-6c-3.4 1.9-6 .9-6-3V43.3L675.1 46v76c-2.2 3.8-5.8 6-9.5 6-3.9 0-7.1-2.2-7.1-9.2V43.4L644 46.3v71.4c0 10.3 5.2 17.9 16.6 17.9 5.5 0 12.2-2.4 16.1-7.7l.2-.1zm-206.7-5.3-.1-.6V67.2c0-18.1-6.9-25.8-21.8-25.8h-1.8c-7.6 0-14 2.9-17.9 9.3l4.5 4.1s4.9-7.2 11.7-7c6 .1 10.8 2.1 10.8 14.5v14.3c-18.8 4.3-32.4 13.2-32.4 34.4 0 18.3 10.2 24.5 18.8 24.5 5 0 11.3-2.3 15.6-6.9 1.7 4.9 5.8 6.2 9.6 6.2s7.5-1.7 9-3.2v-6c-3.3 1.8-6 .8-6-3.1zm-14.6-26.1-.1 20.2v6.2c-1.3 2.6-4.8 5.5-8.6 5.5-4.5 0-8.9-3.9-8.9-19 0-17.1 5.6-23.3 17.7-27.1l-.1 14.2z"/></svg>