<svg id="f06cf2b5-942e-40a7-9b95-2fbcb23704b4" data-name="Layer 1" xmlns="http://www.w3.org/2000/svg" xmlns:xlink="http://www.w3.org/1999/xlink" viewBox="0 0 191.63 32.83">
  <defs>
    <clipPath id="ff81b6d4-7821-4336-8292-099a1a23198b">
      <rect width="191.63" height="32.83" fill="none"></rect>
    </clipPath>
  </defs>
  <g clip-path="url(#ff81b6d4-7821-4336-8292-099a1a23198b)">
    <path d="M10.69,20.36v6.79c0,3,.4,3.86,5.15,3.86v1.37H0V31c4.17,0,4.3-1.25,4.3-3.86V6.57c0-2.62,0-3.9-4.3-3.9V1.33H13.53c6.92,0,12.46,2.84,12.55,9.27.09,5.73-4.92,9.76-14.06,9.76Zm0-1.6H12c3.29,0,7.19-2,7.19-8.16C19.21,5,15.39,3.15,12,3.15H10.69Z" fill="#000000"></path>
    <path d="M39.39,32.38H25.33V31c3.15,0,3.42-.71,3.42-3.6V16.1c0-2.88-.18-3.59-3.33-3.59v-1.2l9.8-.44-.09,5.72c2.22-3.86,5.72-6.57,8.3-5.94s1.69,4.3-1,6.56c-1.29-1.29-4.7-2.66-7.27,1.51v8.69c0,2.89.22,3.6,4.25,3.6Z" fill="#000000"></path>
    <path d="M57.18,32.38H44.09V31c3.15,0,3.42-.71,3.42-3.6V16.1c0-2.88-.18-3.59-3.33-3.59v-1.2l9.8-.45-.09,4.57v12c0,2.89.23,3.6,3.29,3.6ZM46.27,4.17A19.81,19.81,0,0,1,50.48,0a19.59,19.59,0,0,1,4.21,4.17,18.72,18.72,0,0,1-4.21,4.17,17.92,17.92,0,0,1-4.21-4.17" fill="#000000"></path>
    <path d="M81.27,32.38H70.13V31c2.13,0,2.31-.71,2.31-3.6V16.94c0-2.17-.75-3.1-1.91-3.1-1.33,0-3.1,1.24-4.61,3.19V27.41c0,2.89.18,3.6,2.31,3.6v1.37H56.12V31c3.15,0,3.41-.71,3.41-3.6V16.1c0-2.88-.17-3.59-3.32-3.59v-1.2l9.8-.44L65.92,15a9.9,9.9,0,0,1,7.8-4.35c2.62,0,4.48,1.73,5,4.53,1.64-2.22,4.48-4.53,8-4.53,3.1,0,5.1,2.44,5.1,6V27.42c0,2.88.26,3.59,3.41,3.59v1.38H83.08V31c2.09,0,2.31-.71,2.31-3.59V17c0-2.18-.75-3.1-1.91-3.1s-3.1,1.28-4.65,3.14V27.41c0,2.89.22,3.6,2.44,3.6Z" fill="#000000"></path>
    <path d="M112.05,20.36,100.21,21c-.14,7.63,4.92,11.13,11.8,6.83l.62,1c-9.72,7.81-18.94,3.46-18.94-7.19a10.77,10.77,0,0,1,10.56-11h.35c3.9,0,10,1.87,7.45,9.72m-11.8-1,6.26-.35c1.06-2.93,1.06-6.92-1.91-6.92-2.57,0-4.17,3.55-4.35,7.27" fill="#000000"></path>
    <path d="M132.15,17.61,141,28.21c2,2.44,3.24,2.8,4.83,2.8v1.37H135.56A22.64,22.64,0,0,0,132.77,28l-6.53-8.21h-2.48v7.41c0,3,.4,3.86,4.53,3.86v1.37H113.07V31c4.17,0,4.3-1.25,4.3-3.86V6.57c0-2.62,0-3.9-4.3-3.9V1.33H126.6c7.59,0,12.56,2.84,12.56,8.43,0,3.19-2.62,6-7,7.85m-8.39.45h2.4c3.6-1.42,6.12-4.48,6.12-8.39,0-4.48-2.88-6.52-7.23-6.52h-1.29Z" fill="#000000"></path>
    <path d="M160.94,20.36,149.09,21c-.13,7.63,4.93,11.13,11.8,6.83l.62,1c-9.71,7.81-18.94,3.46-18.94-7.19a10.79,10.79,0,0,1,10.56-11h.35c3.9,0,10,1.87,7.46,9.72m-11.8-1,6.25-.35c1.07-2.93,1.07-6.92-1.91-6.92-2.57,0-4.17,3.55-4.34,7.27" fill="#000000"></path>
    <path d="M175.53,16.64c.27-3.86-2.26-4.53-4.21-4.53A3.07,3.07,0,0,0,168,15v0c0,3.82,10.38,5.64,10.38,11.94,0,4.39-5.06,5.9-9.5,5.9-2.84,0-5.68-.71-7.1-2.09l.31-5.14h1.38c.18,4.57,2.44,5.76,5,5.76a3.49,3.49,0,0,0,3.68-3.31V28c0-4.66-10.2-5.94-10.2-11.8,0-3.9,4.34-5.54,8.56-5.54a12.44,12.44,0,0,1,6.56,1.64l-.26,4.35Z" fill="#000000"></path>
    <path d="M191.63,32.38H178.55V31c3.15,0,3.41-.71,3.41-3.6V16.1c0-2.88-.17-3.59-3.32-3.59v-1.2l9.8-.45-.09,4.57v12c0,2.89.22,3.6,3.28,3.6ZM180.72,4.17A19.63,19.63,0,0,1,184.94,0a20.05,20.05,0,0,1,4.21,4.17,19.14,19.14,0,0,1-4.21,4.17,18,18,0,0,1-4.22-4.17" fill="#000000"></path>
  </g>
</svg>