<svg width="240px" height="29px" viewBox="0 0 179 21" version="1.1"
  xmlns="http://www.w3.org/2000/svg"
  xmlns:xlink="http://www.w3.org/1999/xlink" xml:space="preserve"
  xmlns:serif="http://www.serif.com/" style="fill-rule:evenodd;clip-rule:evenodd;stroke-linejoin:round;stroke-miterlimit:2;">
  <path d="M6.812,21c3.715,0 6.596,-2.369 6.596,-5.95c0,-3.42 -2.774,-4.927 -5.358,-5.923l-1.669,-0.646c-2.1,-0.808 -3.258,-1.75 -3.258,-3.554c0,-1.562 1.4,-2.666 3.42,-2.666c1.911,0 3.257,0.915 3.823,3.123l2.664,0c-0.618,-3.176 -2.852,-5.384 -6.273,-5.384c-3.553,0 -6.191,2.127 -6.191,5.25c0,2.935 2.315,4.63 4.657,5.519l1.67,0.647c2.207,0.861 3.957,1.83 3.957,4.011c0,2.262 -1.723,3.392 -3.957,3.392c-2.289,0 -3.878,-1.319 -4.201,-3.904l-2.692,0c0.35,3.662 3.015,6.085 6.812,6.085Zm16.607,-0.35l0,-9.557l11.55,0l0,9.557l2.477,0l0,-20.193l-2.477,0.001l0,8.454l-11.55,0l0,-8.454l-2.477,0l0,20.192l2.477,0Zm33.839,0l0,-2.18l-8.427,0l0,-7.377l8.158,-0.001l0,-2.181l-8.158,0l0,-6.273l8.427,0l0,-2.181l-10.904,0l0,20.193l10.904,0Zm18.842,0l0,-2.181l-8.427,0l0,-7.377l8.157,0l0,-2.181l-8.157,0l0,-6.273l8.427,0l0,-2.181l-10.905,0l0,20.193l10.905,0Zm10.415,0l0,-8.912l2.236,0l7.107,8.912l3.123,0l-7.511,-9.396c2.1,-0.728 4.039,-2.289 4.039,-5.142c0,-2.881 -1.885,-5.655 -7.028,-5.655l-4.442,0.001l0,20.192l2.477,0l-0.001,0Zm1.938,-11.093l-1.938,0l0,-6.918l1.938,0c2.666,0 4.47,1.05 4.47,3.473c0,2.397 -1.804,3.447 -4.47,3.447l0,-0.002Zm27.216,11.093l0,-2.18l-8.426,0l0,-18.013l-2.478,0.001l0,20.192l10.904,0Zm13.485,0.35c4.738,0 7.888,-2.8 7.888,-7.485l0,-13.058l-2.476,0l0,13.274c0,3.311 -2.343,5.035 -5.412,5.035c-3.069,0 -5.411,-1.724 -5.411,-5.035l0,-13.274l-2.478,0l0,13.058c0,4.685 3.177,7.485 7.889,7.485l0,0Zm16.796,-0.35l6.273,-8.453l6.219,8.453l3.043,0l-7.727,-10.5l7.188,-9.692l-2.827,0l-5.788,7.781l-5.734,-7.781l-3.043,0l7.269,9.854l-7.7,10.338l2.827,0Zm32.681,0l0,-2.18l-8.428,0l0,-7.377l8.158,-0.001l0,-2.181l-8.157,0l0,-6.273l8.427,0l0,-2.181l-10.904,0l0,20.193l10.904,0Z"></path>
</svg>
