<?xml version="1.0" encoding="utf-8"?>
<!-- Generator: Adobe Illustrator 16.0.0, SVG Export Plug-In . SVG Version: 6.00 Build 0)  -->
<!DOCTYPE svg PUBLIC "-//W3C//DTD SVG 1.1//EN" "http://www.w3.org/Graphics/SVG/1.1/DTD/svg11.dtd">
<svg version="1.1" id="Layer_1" xmlns="http://www.w3.org/2000/svg" xmlns:xlink="http://www.w3.org/1999/xlink" x="0px" y="0px"
	 width="225px" height="21px" viewBox="0 0 225 21" enable-background="new 0 0 225 21" xml:space="preserve">
<g>
	<rect x="11.189" y="1" fill="#231F20" width="4.419" height="1.766"/>
	<polygon fill="#231F20" points="9.263,19.943 9.263,1 1,1 1,2.766 7.341,2.766 7.341,19.943 	"/>
</g>
<g>
	<rect x="25.99" y="1.311" fill="#231F20" width="1.92" height="18.943"/>
	<polygon fill="#231F20" points="38.244,1.311 38.244,9.525 29.837,9.525 29.837,11.291 38.244,11.291 38.244,20.254 40.17,20.254 
		40.17,1.311 	"/>
</g>
<g>
	<rect x="56.594" y="9.525" fill="#231F20" width="7.255" height="1.766"/>
	<rect x="56.594" y="1.311" fill="#231F20" width="7.897" height="1.766"/>
	<rect x="52.746" y="1.311" fill="#231F20" width="1.922" height="18.943"/>
	<rect x="56.594" y="18.488" fill="#231F20" width="8.218" height="1.766"/>
</g>
<g>
	<rect x="113.242" y="1.311" fill="#231F20" width="1.907" height="18.943"/>
	<path fill="#231F20" d="M118.753,1.311h-1.678v1.766h1.197c3.451,0,4.628,1.472,4.628,3.291c0,1.819-1.177,3.318-4.628,3.318
		h-1.197v1.765h1.678c3.853,0,6.234-1.685,6.234-5.083C124.987,2.97,122.605,1.311,118.753,1.311z"/>
</g>
<g>
	<path fill="#231F20" d="M169.309,2.623c1.85,0.181,3.688,1.331,4.375,2.46l1.685-1.257c-1.543-1.966-3.85-2.866-6.06-2.982V2.623z"
		/>
	<path fill="#231F20" d="M174.245,16.134c-1.3,2.012-3.117,2.716-4.937,2.82v1.767c2.91-0.151,5.324-1.614,6.515-3.465
		L174.245,16.134z"/>
	<path fill="#231F20" d="M167.383,18.852c-4.003-0.672-6.355-4.153-6.355-8.069c0-3.914,2.353-7.396,6.355-8.068v-1.79
		c-4.914,0.646-8.441,4.604-8.441,9.858c0,5.255,3.527,9.213,8.441,9.858V18.852z"/>
</g>
<g>
	<rect x="190.368" y="9.525" fill="#231F20" width="7.235" height="1.766"/>
	<rect x="190.368" y="1.311" fill="#231F20" width="7.877" height="1.766"/>
	<rect x="190.368" y="18.488" fill="#231F20" width="8.197" height="1.766"/>
	<rect x="186.501" y="1.311" fill="#231F20" width="1.941" height="18.943"/>
</g>
<g>
	<polygon fill="#231F20" points="142.525,1.343 142.512,1.311 140.641,1.311 132.399,20.254 134.591,20.254 	"/>
	<polygon fill="#231F20" points="143.509,3.601 142.542,5.906 145.67,13.512 139.351,13.512 138.609,15.277 146.419,15.277 
		148.506,20.254 150.753,20.254 	"/>
</g>
<g>
	<path fill="#231F20" d="M96.759,2.622c1.346,0.125,2.396,0.73,3.131,1.82l1.685-1.311c-1.371-1.566-2.922-2.191-4.816-2.286V2.622z
		"/>
	<path fill="#231F20" d="M92.184,6.019c0-1.816,1.201-2.852,2.649-3.242V0.955c-2.542,0.446-4.736,2.145-4.736,5.252
		c0,6.928,9.712,3.959,9.712,9.311c0,1.829-1.47,2.984-3.051,3.336v1.791c2.639-0.427,5.138-2.363,5.138-5.395
		C101.897,8.428,92.184,11.131,92.184,6.019z"/>
	<path fill="#231F20" d="M94.833,18.9c-1.537-0.235-2.723-1.062-3.398-2.231l-1.739,1.257c1.27,1.741,3.141,2.592,5.137,2.771V18.9z
		"/>
</g>
<g>
	<path fill="#231F20" d="M215.637,2.622c1.346,0.125,2.396,0.73,3.131,1.82l1.685-1.311c-1.37-1.566-2.921-2.191-4.815-2.286V2.622z
		"/>
	<path fill="#231F20" d="M211.061,6.019c0-1.816,1.202-2.852,2.648-3.242V0.955c-2.541,0.446-4.734,2.145-4.734,5.252
		c0,6.928,9.713,3.959,9.713,9.311c0,1.829-1.471,2.984-3.051,3.336v1.791c2.638-0.426,5.138-2.363,5.138-5.395
		C220.774,8.428,211.061,11.131,211.061,6.019z"/>
	<path fill="#231F20" d="M213.709,18.9c-1.536-0.235-2.723-1.063-3.396-2.231l-1.739,1.257c1.27,1.74,3.14,2.592,5.136,2.771V18.9z"
		/>
</g>
</svg>
