<svg xmlns="http://www.w3.org/2000/svg" width="157" height="36" fill="none"><title>Wallpaper</title><path fill="#333" fill-rule="evenodd" d="M36.5 21.432c-2.843.324-3.774.808-3.774 2.842 0 1.687 1.023 2.48 2.302 2.48 1.37 0 2.258-.503 2.913-1.21V21.27l-1.442.162Zm-5.119-9.638c1.517-.542 2.971-.815 4.627-.815 2.75 0 4.652.713 5.576 2.224.709.913.986 2.127.97 4.57v6.869c0 1.108.867 1.679 1.74 1.858l-1.789 3.293a6.328 6.328 0 0 1-1.777-.412c-.938-.375-1.761-1.012-2.087-1.988-.275.49-.63.85-.965 1.185-.917.917-2.305 1.333-3.596 1.333-3.566 0-5.994-1.722-5.994-5.449 0-3.824 2.392-5.653 7.887-5.924.166 0 1.786-.144 1.968-.127V17.33c0-2.151-.392-2.634-2.484-2.634-1.703 0-3.158.656-5.348 1.63l-1.319-3.341c.91-.469 1.509-.804 2.591-1.19Zm14.352 17.649h4.63V2.308h-4.63v27.135Zm7.493 0h4.629V2.308h-4.629v27.135ZM0 6.055l5.905 23.387h5.302l3.356-16.61 3.329 16.61h5.15l5.975-23.387h-4.799l-3.502 17.327L17.24 6.055h-5.076l-3.47 17.46-3.447-17.46H0Zm86.377 15.377c-2.843.324-3.775.808-3.775 2.842 0 1.687 1.024 2.48 2.302 2.48 1.37 0 2.258-.503 2.914-1.21V21.27l-1.441.162Zm-5.12-9.638c1.518-.542 2.971-.815 4.627-.815 2.752 0 4.653.713 5.576 2.224.708.913.986 2.127.97 4.57v6.869c0 1.108.868 1.679 1.741 1.858l-1.788 3.293a6.295 6.295 0 0 1-1.846-.44c-.91-.378-1.701-1.007-2.018-1.96-.276.49-.63.85-.965 1.185-.919.917-2.307 1.333-3.598 1.333-3.565 0-5.994-1.722-5.994-5.449 0-3.824 2.392-5.653 7.887-5.924.166 0 1.786-.144 1.97-.127V17.33c0-2.151-.392-2.634-2.484-2.634-1.704 0-3.16.656-5.35 1.63l-1.318-3.341c.91-.469 1.509-.804 2.59-1.19Zm43.288 6.914v-.317c0-2.481-.665-4.194-3.006-4.194-1.866 0-3.081.997-3.171 4.477l.002.034h6.175Zm4.63 9.266c-1.676 1.113-3.947 1.955-6.597 1.955-5.585 0-8.993-3.476-8.993-9.44 0-3.13.744-5.357 2.229-7.02 1.504-1.687 3.521-2.502 6.036-2.502 2.381 0 4.322.73 5.534 2.057 1.479 1.598 2.148 3.942 2.148 7.278v1.53h-11.008c0 3.247 2.039 4.38 4.401 4.38 1.835 0 3.557-.518 5.183-1.396l1.067 3.158Zm11.216-16.989c.857 0 1.388.106 1.991.347l-.962 4.108c-.525-.188-1.124-.312-1.953-.312-1.297 0-2.416.451-3.431 1.281v13.034h-4.701V16.164c0-1.158-.134-3.992-.318-4.479l3.654-.537c.202.352 1.076 2.505 1.11 2.992.71-1.12 1.673-2.186 2.69-2.71.552-.294 1.433-.445 1.92-.445ZM68.497 26.6c1.311 0 2.234-.169 2.81-1.3.499-.98.736-2.716.736-5.272 0-1.94-.239-3.284-.714-4.114-.492-.88-1.323-1.263-2.49-1.263-1.364 0-2.443.488-3.476 1.304v9.547c.717.522 1.817 1.099 3.134 1.099Zm-4.274-15.435c.322.471.884 2.086.9 2.354 1.081-1.779 3.207-2.535 4.873-2.535 1.443 0 2.769.403 3.802 1.118 1.99 1.372 3.219 3.931 3.219 8.014 0 3.763-.827 6.315-2.712 8.035-1.24 1.122-2.893 1.748-4.816 1.748-1.824 0-3.233-.607-4.177-1.305.006.317.034 1.42.034 1.671v5.484h-4.543V16.164c0-1.158-.06-3.992-.245-4.479l3.665-.52ZM103.455 26.6c1.312 0 2.234-.169 2.81-1.3.5-.98.735-2.716.735-5.272 0-1.94-.237-3.284-.713-4.114-.492-.88-1.323-1.263-2.49-1.263-1.364 0-2.443.488-3.476 1.304v9.547c.717.522 1.817 1.099 3.134 1.099Zm-4.274-15.435c.321.471.885 2.086.9 2.354 1.082-1.779 3.207-2.535 4.874-2.535 1.444 0 2.767.403 3.801 1.118 1.991 1.372 3.219 3.931 3.219 8.014 0 3.763-.828 6.315-2.711 8.035-1.24 1.122-2.893 1.748-4.816 1.748-1.825 0-3.232-.607-4.178-1.305.005.317.035 1.42.035 1.671v5.484h-4.544V16.164c0-1.158-.06-3.992-.245-4.479l3.665-.52ZM147.724 0v4.627l-4.455-1.448-1.02 3.139 4.435 1.441-2.727 3.754 2.67 1.94 2.701-3.718 2.701 3.718 2.671-1.94-2.728-3.754 4.435-1.441-1.02-3.139-4.455 1.448V0h-3.208Z" clip-rule="evenodd"></path></svg>