<?xml version="1.0" encoding="utf-8"?>
<!-- Generator: Adobe Illustrator 26.5.0, SVG Export Plug-In . SVG Version: 6.00 Build 0)  -->
<svg version="1.1" id="Layer_1" xmlns="http://www.w3.org/2000/svg" xmlns:xlink="http://www.w3.org/1999/xlink" x="0px" y="0px"
	 viewBox="0 0 36 36" style="enable-background:new 0 0 36 36;" xml:space="preserve">
<style type="text/css">
	.st0{clip-path:url(#SVGID_00000075128055897763810970000012349954704073528970_);}
</style>
		<path id="SVGID_1_" d="M6.3,1.4C4,1,1.5,2.2,1.5,4.7c0,1.3,0.5,2.1,1.6,3c2.4,2.2,9.4,8.2,9.4,10.4c0,2-8.8,7.8-11.4,11.2
			C0.5,30.2,0,30.6,0,31.7c0,1.5,1.6,2.9,3.4,2.9c4.3,0,6.4-4,9.5-7.7c0.9-1.1,2.2-2.6,3.3-3.3c1.3-0.9,2.5,0.2,2.5,0.2
			c1.5,1.1,2.4,2.5,3.7,4.1c3,3.8,5,6.9,8.1,6.9c2.5,0,4.5-1.2,4.5-3.5c0-1.4-0.9-2.4-3.2-4.2c-2.5-1.9-9.2-6.9-9.1-8.7
			c-0.1-2.1,9.8-8.3,12.5-11.5C35.6,6,36,5.3,36,4.4c0-2.2-1.4-3.2-3.7-3.2c-4,0-5.9,4.1-9.3,7.8c-1.4,1.5-2.1,2.6-3.8,3.7
			c-0.5,0.3-1.5,0.7-2.5-0.1c-1-0.7-2.1-2.6-2.7-3.5C11.2,5.4,8.7,1.7,6.3,1.4z"/>
</svg>
