<?xml version="1.0" encoding="utf-8"?>
<!-- Generator: Adobe Illustrator 26.5.0, SVG Export Plug-In . SVG Version: 6.00 Build 0)  -->
<svg version="1.1" id="Layer_1" xmlns="http://www.w3.org/2000/svg" xmlns:xlink="http://www.w3.org/1999/xlink" x="0px" y="0px"
	 viewBox="0 0 36 36" style="enable-background:new 0 0 36 36;" xml:space="preserve">
<style type="text/css">
	.st0{fill-rule:evenodd;clip-rule:evenodd;}
</style>
<path class="st0" d="M4.2,9.4C0.8,9.5,0,7.7,0,6.4c0-2.2,2-3.3,4.6-3.3c5.3,0,6.1,0.6,13.5,0.6c3.5,0,10-0.6,13.4-0.6
	c2.7,0,4.6,0.5,4.6,2.8c0,2.1-1.3,3.6-4.6,3.6C28,9.5,21.9,9,17.7,9C12.8,9,7.7,9.3,4.2,9.4"/>
<path class="st0" d="M30.5,14.9c-3.4,0-8.5,0.6-12,0.6c-7.3,0-7.9-0.6-13.2-0.6c-2.6,0-5.3,1.2-5.3,3.4c0,1.3,1.3,3,4.7,3
	s8.7-0.5,13.6-0.5c4.1,0,9.8,0.6,13.1,0.6c3.3,0,4.6-1.6,4.6-3.6C36,15.4,33.1,14.9,30.5,14.9"/>
<path class="st0" d="M30.2,26.7c-3.4,0-8.8,0.6-12.4,0.6c-7.3,0-7.8-0.6-13.1-0.6c-2.6,0-4.6,1.2-4.7,3.4c-0.1,1.7,1.9,3,5.3,3
	s7.5-0.7,12.4-0.7c4.1,0,9.9,0.6,13.2,0.6c3.3,0,5-1.2,5-3.3C36,27.5,32.8,26.7,30.2,26.7"/>
</svg>
