<?xml version="1.0" encoding="utf-8"?>
<!-- Generator: Adobe Illustrator 26.5.0, SVG Export Plug-In . SVG Version: 6.00 Build 0)  -->
<svg version="1.1" id="Layer_1" xmlns="http://www.w3.org/2000/svg" xmlns:xlink="http://www.w3.org/1999/xlink" x="0px" y="0px"
	 viewBox="0 0 36 36" style="enable-background:new 0 0 36 36;" xml:space="preserve">
<style type="text/css">
	.st0{clip-path:url(#SVGID_00000152250151441529958820000011351027438542539162_);}
	.st1{clip-path:url(#SVGID_00000098903095259548025110000014216497918483724191_);}
</style>
<g>
	<defs>
		<path id="SVGID_1_" d="M20.8,33.9c-1.6,0-3.4-1.3-3.4-2.7c0-1,0.4-1.4,1-2.2c2.4-3.1,6.9-5.3,6.9-6.7c0-0.4-0.4-0.7-1.1-0.7
			c-5.6,0-17.9,0.6-20.6,0.6c-3.1,0-3.6-2.9-3.6-4.5c0-1.8,1.7-2.6,4-2.6c7.7,0,12.9,0.8,20.2,0.8c1,0,1.3-0.2,1.3-0.7
			c0-1.5-3-4.2-5.2-6.3c-1-0.9-1.5-1.6-1.5-2.8c0-2.3,2.3-3.1,4.4-3.1c2.3,0,4.4,4.5,7.3,7.9c2.3,2.7,5.6,4.9,5.5,7.3
			c0.1,2.6-3.2,4.7-6.9,8.3C26,29.7,24.8,33.9,20.8,33.9z"/>
	</defs>
	<clipPath id="SVGID_00000015342053601175923500000006352510758150930089_">
		<use xlink:href="#SVGID_1_"  style="overflow:visible;"/>
	</clipPath>
	<g style="clip-path:url(#SVGID_00000015342053601175923500000006352510758150930089_);">
		<defs>
			<rect id="SVGID_00000168111121367493417390000003982698568478587557_" x="0" y="3.1" width="36" height="30.8"/>
		</defs>
		<clipPath id="SVGID_00000074440367020615859810000001225199557640474556_">
			<use xlink:href="#SVGID_00000168111121367493417390000003982698568478587557_"  style="overflow:visible;"/>
		</clipPath>
		
			<rect x="-0.7" y="2.4" style="clip-path:url(#SVGID_00000074440367020615859810000001225199557640474556_);" width="37.4" height="32.2"/>
	</g>
</g>
</svg>
