<?xml version="1.0" encoding="utf-8"?>
<!-- Generator: Adobe Illustrator 26.5.0, SVG Export Plug-In . SVG Version: 6.00 Build 0)  -->
<svg version="1.1" id="Layer_1" xmlns="http://www.w3.org/2000/svg" xmlns:xlink="http://www.w3.org/1999/xlink" x="0px" y="0px"
	 viewBox="0 0 36 36" style="enable-background:new 0 0 36 36;" xml:space="preserve">
<style type="text/css">
	.st0{clip-path:url(#SVGID_00000156555165221559721240000015776505454521732242_);}
	.st1{clip-path:url(#SVGID_00000136394923971846463240000016900599410212067508_);}
</style>
<g>
	<defs>
		<path id="SVGID_1_" d="M15.8,2.5c2.2,0,3.4,0.9,3.4,2.9c0,0.8-0.4,1.5-0.9,2.2c-2.5,3-6.8,5.2-6.8,6.9c0,0.3,0.5,0.5,1.5,0.5
			c4.5,0,9,0.1,12.1-0.1c3.7-0.2,5.7-0.3,7.1-0.3c3.1,0,3.8,1.5,3.8,3.6c0,2.7-1.9,3.5-4.2,3.5c-7.4,0-12.1-1.2-19.2-1.2
			c-0.9,0-1.1,0.6-1.1,1.1c0,0.9,1.5,3.1,3.8,4.9c2.1,1.7,3,2.6,3,3.9c0,2.1-1.8,3.2-4.2,3.2c-2.9,0-5-4.7-7.6-7.2
			c-2.8-2.7-6.3-5.2-6.4-7.7c-0.1-2.5,3.3-4.5,7.1-8.3C10.3,7,12.1,2.5,15.8,2.5z"/>
	</defs>
	<clipPath id="SVGID_00000114783746943312394680000001829787909064694433_">
		<use xlink:href="#SVGID_1_"  style="overflow:visible;"/>
	</clipPath>
	<g style="clip-path:url(#SVGID_00000114783746943312394680000001829787909064694433_);">
		<defs>
			<rect id="SVGID_00000089534834562504160270000011263889366676025534_" x="0" y="2.5" width="36" height="31"/>
		</defs>
		<clipPath id="SVGID_00000101804152785093303530000009632579216585233592_">
			<use xlink:href="#SVGID_00000089534834562504160270000011263889366676025534_"  style="overflow:visible;"/>
		</clipPath>
		
			<rect x="-0.7" y="1.9" style="clip-path:url(#SVGID_00000101804152785093303530000009632579216585233592_);" width="37.3" height="32.3"/>
	</g>
</g>
</svg>
