<?xml version="1.0" encoding="utf-8"?>
<!-- Generator: Adobe Illustrator 26.5.0, SVG Export Plug-In . SVG Version: 6.00 Build 0)  -->
<svg version="1.1" id="Layer_1" xmlns="http://www.w3.org/2000/svg" xmlns:xlink="http://www.w3.org/1999/xlink" x="0px" y="0px"
	 viewBox="0 0 2042 300" style="enable-background:new 0 0 2042 300;" xml:space="preserve">
<path class="st0" d="M1970.3,295.4c21.3,0,57.8-39.5,62.6-46.2c4.9-6.7,10.2-16,8.9-28.4c-2.2-17.8-33.8-17.3-24.9-44
	c6.7-20.4,24.9-21.8,24.9-50.2s-15.5-50.2-36.4-50.2c-22.7,0-40.9,40.9-50.6,40.9c-7.1,0-8.9-10.7-11.5-20.9
	c-2.7-11.1-11.1-20.9-30.2-20.9c-16.4,0-32,19.1-32,37.3s19.5,18.7,19.5,41.8c0,36-43.1,72-43.1,109.3c0,16.9,9.8,28.4,28.9,28.4
	c21.3,0,28-31.1,31.1-52.9c4.4-31.5,19.1-56.9,32-73.7c5.3-6.7,11.1-12,17.3-12c8.4,0,7.1,12.9,4,31.5
	c-4.9,27.5-30.2,59.1-30.2,81.7C1940.6,287.8,1954.8,295.4,1970.3,295.4"/>
<path class="st0" d="M1774.8,76.4c-45.8,0-87.1,69.7-87.1,138.2c0,56.4,27.1,80.4,60,80.4c49.8,0,91.1-60.4,91.1-127
	C1838.8,98.6,1812.6,76.4,1774.8,76.4z M1793.9,169.7c-1.3,39.5-21.3,69.3-41.8,69.3c-9.3,0-13.8-10.2-13.8-29.8
	c0-33.3,19.1-76.9,38.2-76.9C1793.1,132.3,1794.8,148.8,1793.9,169.7z"/>
<path class="st0" d="M1575.4,293.1c31.5,0,68.4-25.3,68.4-49.7c0-12-9.3-11.1-22.2-11.6c-10.7-0.4-18.2-5.8-14.7-17.8l22.2-76
	c4-13.8,8.4-15.5,18.7-15.5h21.4c12.4,0,25.3-6.7,25.3-23.5c0-26.2-5.3-30.7-44.1-30.7c-16.4,0,0.4-43.1-23.1-43.1
	c-10.2,0-20,4.4-28.9,16c-8.9,11.1-15.5,24.9-28,45.3c-7.6,12-9.8,18.2-9.8,26.7c0,20,24,19.5,13.3,45.8l-23.5,57.7
	c-5.8,14.2-8,27.5-8,39.5C1542.6,283.8,1559.4,293.1,1575.4,293.1"/>
<path class="st0" d="M1409.2,300.3c18.2,0,42.2-10.7,65.7-32c8.9-8,22.2-28,22.2-55.1c0-12.9-5.8-24-16.9-37.3
	c-7.1-8.9-8-15.5-8-21.8c0-15.1,11.5-23.1,21.3-23.1c5.8,0,10.2,2.2,18.2,2.2c14.7,0,22.7-14.2,22.7-26.7
	c0-20.9-13.8-29.8-35.1-29.8c-20.9,0-44.9,8.4-64,39.5c-11.1,17.8-15.5,32.9-15.5,49.3c0,27.1,16.9,32.4,16.9,54.2
	c0,14.2-8,19.1-22.2,22.7c-21.3,5.8-33.3,19.1-33.3,33.8C1381.2,293.1,1392.8,300.3,1409.2,300.3"/>
<path class="st0" d="M1349,201.6c-12.9,0-16.4,8.9-25.8,8.9c-4.9,0-7.1-2.7-7.1-9.8c0-19.5,25.3-49.3,35.5-63.5
	c6.2-8.4,21.8-23.5,21.8-47.1c0-19.1-29.3-33.8-38.2-33.8c-20.4,0-21.8,31.1-29.3,41.8c-10.7,15.1-28.9,7.1-55.1,20.9
	c-45.8,24-94.2,86.2-94.2,122.6c0,36.9,30.2,46.2,46.6,46.2c29.8,0,38.2-22.7,54.6-22.7c15.1,0,10.7,30.2,39.1,30.2
	c14.2,0,29.8-11.1,43.1-20.4c17.8-12.4,32.9-27.1,33.8-47.1C1374.7,211.9,1362.7,201.6,1349,201.6z M1240.6,236.7
	c-7.6,0-19.5-4-19.5-19.5c0-25.3,28.9-50.6,46.6-50.6c7.1,0,14.7,2.7,14.7,14.7C1282.3,206.1,1258.8,236.7,1240.6,236.7z"/>
<path class="st0" d="M1078.1,291.8c19.5,0,32-4,41.8-25.8c4.9-10.7,8.4-20,12.4-32.4c6.2-20.9-2.7-31.1-18.7-31.1
	c-12,0-17.8,7.1-26.7,16c-19.1,18.7-34.6,25.3-61.7,25.3c-29.8,0-38.6-9.3-36.4-32.4c0.9-9.8,2.2-15.1,4.4-25.8
	c3.6-16.9,15.1-21.8,36-21.8c21.8,0,30.2,7.1,51.1,8c15.5,0.9,30.7-8.9,30.2-31.5c-0.4-20-12.9-24-26.2-24c-16,0-32.4,3.6-54.2,3.6
	c-16.9,0-23.5-4.9-22.7-20.4c0.9-5.8,2.2-12.4,3.6-20c3.1-18.2,11.5-26.7,30.6-27.1c19.1-0.4,38.6,3.6,53.7,12.4
	c11.6,6.7,17.3,10.2,27.1,10.2c13.8,0,18.2-11.1,17.3-40c-0.9-24.4-10.7-33.8-36.4-33.8c-79.5,0-113.3-1.8-159.5-1.8
	c-20.9,0-30.7,6.7-31.1,25.3c-0.4,15.5,14.2,24.9,27.5,32.9c17.3,10.2,16.9,33.3,14.2,48.4c-4.9,32.9-10.7,64-16.4,95.1
	c-2.7,16.4-6.2,28-32.9,35.1c-15.1,4.4-24,13.8-24.9,28c1.3,19.5,13.3,26.2,40.9,26.2C948.4,290.5,948.4,291.8,1078.1,291.8"/>
<path class="st0" d="M690.9,291.8c44.9,0,56.4-38.2,56.4-57.3c0-8.4-5.3-11.6-10.7-11.6c-11.6,0-20,13.3-37.3,13.3
	c-10.7,0-19.5-4.9-19.5-27.5c0-8,2.2-14.7,5.3-22.2c2.7-6.7,8-10.2,16.4-10.2c34.2,0,84.8-21.8,84.8-59.1
	c0-28.4-24.4-40.9-42.2-40.9c-61.7,0-113.7,90.2-113.7,151C630.5,270.5,661.1,291.8,690.9,291.8"/>
<path class="st0" d="M504.5,300.3c18.2,0,42.2-10.7,65.7-32c8.9-8,22.2-28,22.2-55.1c0-12.9-5.8-24-16.9-37.3
	c-7.1-8.9-8-15.5-8-21.8c0-15.1,11.6-23.1,21.3-23.1c5.8,0,10.2,2.2,18.2,2.2c14.7,0,22.7-14.2,22.7-26.7
	c0-20.9-13.8-29.8-35.1-29.8c-20.9,0-44.9,8.4-64,39.5c-11.1,17.8-15.5,32.9-15.5,49.3c0,27.1,16.9,32.4,16.9,54.2
	c0,14.2-8,19.1-22.2,22.7c-21.3,5.8-33.3,19.1-33.3,33.8C476.5,293.1,488,300.3,504.5,300.3"/>
<path class="st0" d="M409.8,76.4c-45.8,0-87.1,69.7-87.1,138.2c0,56.4,27.1,80.4,60,80.4c49.8,0,91.1-60.4,91.1-127
	C473.7,98.6,447.5,76.4,409.8,76.4z M428.9,169.7c-1.3,39.5-21.3,69.3-41.8,69.3c-9.3,0-13.8-10.2-13.8-29.8
	c0-33.3,19.1-76.9,38.2-76.9C428,132.3,429.8,148.8,428.9,169.7z"/>
<path class="st0" d="M270.2,237.6c-24.9-11.5-35.1-24-44-35.5c-8.9-13.8-15.1-20.9-15.5-32.9c-1.3-30.7,40.9-24.4,50.6-76
	c12.4-65.3-53.7-92-143-92H75.1c-25.3,0-40.4,2.2-39.5,27.5c0.9,28.4,46.6,18.7,48,57.8c0,4.9,0,10.2-0.9,16.4L64.9,203
	C56,254.5,8.1,230.1,0.5,264.3c-3.1,16,6.7,25.8,23.1,25.8h93.3c20.4,0,36.4-3.6,36-20.4c-0.4-12.4-7.6-20.4-25.3-28.9
	c-15.1-7.1-11.1-14.7-8-35.1c1.8-13.8,6.2-22.2,16.9-22.2c26.2,0,35.1,11.1,41.8,29.3c4.9,13.8,10.7,30.2,17.8,47.5
	c8,20,16,28.4,32,29.3c24,1.8,1.3,0.4,47.5,0.4c18.2,0,28-3.1,28.4-17.8C304.4,250.9,285.7,244.7,270.2,237.6z M199.5,95.5
	c-5.3,29.3-27.5,43.1-58.6,43.1c-9.3,0-12.9-5.8-12.9-13.8c-0.4-10.7,2.7-25.8,5.3-37.8c4.4-20,9.3-33.3,30.2-33.3
	c2.7,0,5.8,0.4,9.3,0.9c15.6,2.2,27.1,16,27.5,32C200.4,89.7,200,92.4,199.5,95.5z"/>
</svg>
